<svg xmlns="http://www.w3.org/2000/svg" xmlns:xlink="http://www.w3.org/1999/xlink" id="Ebene_1" x="0px" y="0px" viewBox="0 0 247.23 47.23" style="enable-background:new 0 0 247.23 47.23;" xml:space="preserve"><style type="text/css">	.st0{fill:#0069B4;}	.st1{fill-rule:evenodd;clip-rule:evenodd;fill:#0069B4;}	.st2{fill:#009A93;}</style><g>	<g>		<path class="st0" d="M11.48,40.66h0.71l2.26,5.66l2.28-5.66h0.71l-2.68,6.46h-0.61L11.48,40.66z"></path>	</g>	<g>		<path class="st0" d="M25.88,40.66h3.53v0.59h-2.89v2.33h2.79v0.59h-2.79v2.38h2.89v0.59h-3.53V40.66z"></path>		<path class="st0" d="M39.4,40.66h1.54c0.61,0,1.29,0.01,1.84,0.31c0.66,0.38,1.01,1.04,1.01,1.79c0,1.06-0.86,1.92-1.91,1.94   l1.82,2.41h-0.8l-2.19-2.93h0.19c0.45,0,0.98,0.02,1.41-0.17c0.53-0.25,0.84-0.73,0.84-1.31c0-0.45-0.24-0.9-0.6-1.15   c-0.43-0.31-0.95-0.31-1.46-0.31h-1.02v5.88H39.4V40.66z"></path>		<path class="st0" d="M53.75,45.31c0.02,0.71,0.57,1.3,1.29,1.3c0.73,0,1.34-0.53,1.34-1.28c0-0.35-0.17-0.7-0.45-0.92   c-0.3-0.25-0.63-0.33-1-0.43c-0.4-0.11-0.81-0.21-1.14-0.49c-0.36-0.31-0.54-0.74-0.54-1.21c0-1.04,0.82-1.74,1.84-1.74   c0.98,0,1.78,0.76,1.77,1.75H56.2c-0.04-0.66-0.52-1.13-1.18-1.13c-0.63,0-1.11,0.52-1.11,1.13c0,0.78,0.65,0.96,1.28,1.14   c0.46,0.13,0.87,0.21,1.24,0.55c0.38,0.33,0.6,0.84,0.6,1.36c0,1.07-0.92,1.89-1.97,1.89c-1.1,0-2.01-0.79-2-1.92H53.75z"></path>		<path class="st0" d="M66.72,40.66h0.65v6.46h-0.65V40.66z"></path>	</g>	<g>		<path class="st0" d="M82.49,42.32c-0.48-0.73-1.39-1.15-2.26-1.15c-1.47,0-2.7,1.28-2.7,2.69c0,1.51,1.28,2.75,2.75,2.75   c0.87,0,1.73-0.47,2.24-1.18h0.72c-0.56,1.08-1.74,1.8-2.96,1.8c-1.9,0-3.39-1.46-3.39-3.37c0-1.84,1.5-3.31,3.34-3.31   c0.66,0,1.31,0.17,1.86,0.54c0.41,0.26,0.94,0.75,1.12,1.22H82.49z"></path>		<path class="st0" d="M92.58,40.66h0.65v2.84h3.35v-2.84h0.65v6.46h-0.65v-3.03h-3.35v3.03h-0.65V40.66z"></path>	</g>	<g>		<path class="st0" d="M107.81,40.66h3.53v0.59h-2.89v2.33h2.79v0.59h-2.79v2.38h2.89v0.59h-3.53V40.66z"></path>		<path class="st0" d="M121.32,40.66h1.54c0.61,0,1.29,0.01,1.84,0.31c0.66,0.38,1.01,1.04,1.01,1.79c0,1.06-0.86,1.92-1.91,1.94   l1.82,2.41h-0.8l-2.19-2.93h0.19c0.45,0,0.98,0.02,1.41-0.17c0.53-0.25,0.84-0.73,0.84-1.31c0-0.45-0.24-0.9-0.6-1.15   c-0.43-0.31-0.95-0.31-1.46-0.31h-1.02v5.88h-0.65V40.66z"></path>		<path class="st0" d="M136.11,40.66v3.93c0,0.46,0.04,0.95,0.3,1.35c0.27,0.43,0.75,0.67,1.26,0.67c0.45,0,0.92-0.21,1.19-0.59   c0.31-0.42,0.36-0.94,0.36-1.44v-3.93h0.65v3.93c0,0.66-0.06,1.29-0.48,1.83c-0.4,0.53-1.05,0.82-1.71,0.82   c-0.65,0-1.28-0.27-1.69-0.77c-0.45-0.55-0.52-1.2-0.52-1.88v-3.93H136.11z"></path>		<path class="st0" d="M150.02,40.66h0.88l3.62,5.36v-5.36h0.65v6.46h-0.65l-3.85-5.68v5.68h-0.65V40.66z"></path>		<path class="st0" d="M171.92,44.13c-0.12,1.78-1.68,3.09-3.42,3.09c-1.86,0-3.46-1.49-3.46-3.37c0-0.86,0.39-1.72,1-2.32   c0.67-0.66,1.54-0.99,2.46-0.99c0.67,0,1.34,0.18,1.9,0.55c0.42,0.28,0.96,0.78,1.13,1.28h-0.73c-0.46-0.76-1.39-1.21-2.29-1.21   c-0.69,0-1.39,0.24-1.92,0.73c-0.53,0.49-0.89,1.23-0.89,1.97c0,1.57,1.3,2.75,2.84,2.75c1.15,0,2.29-0.76,2.62-1.89h-3.61v-0.59   H171.92z"></path>		<path class="st0" d="M181.77,40.66h3.53v0.59h-2.88v2.33h2.79v0.59h-2.79v2.38h2.88v0.59h-3.53V40.66z"></path>		<path class="st0" d="M195.29,40.66h0.88l3.62,5.36v-5.36h0.65v6.46h-0.65l-3.85-5.68v5.68h-0.65V40.66z"></path>	</g>	<g>		<polygon class="st0" points="14.92,34.5 14.91,16.3 12.28,16.3 12.28,30.19 2.85,16.3 0,16.3 12.26,34.5 14.92,34.5   "></polygon>	</g>	<g>		<path class="st1" d="M35.42,25.45c0-5.19-4.06-9.49-9.47-9.49c-5.56,0-9.47,4.5-9.47,9.44c0,4.99,4.03,9.44,9.47,9.44   C31.36,34.85,35.42,30.42,35.42,25.45L35.42,25.45z M32.77,25.48c0,2.85-2.12,6.93-6.81,6.93c-4.67,0-6.81-4.03-6.81-7.01   c0-2.9,2.11-7.01,6.81-7.01C30.48,18.39,32.77,22.26,32.77,25.48L32.77,25.48z"></path>	</g>	<g>		<polygon class="st0" points="45.47,34.5 45.47,32.07 39.8,32.07 39.8,16.3 37.15,16.3 37.15,34.5 45.47,34.5   "></polygon>	</g>	<g>		<polygon class="st1" points="59.81,34.5 52.7,25.33 59.81,16.3 56.54,16.3 49.63,25.33 49.58,25.33 49.58,16.3 46.92,16.3    46.92,34.5 49.58,34.5 49.58,25.33 49.63,25.33 56.54,34.5 59.81,34.5   "></polygon>	</g>	<g>		<path class="st1" d="M59.42,29.12c0,4.06,3.1,5.73,5.61,5.73c3.34,0,5.58-2.34,5.58-5.51c0-4.38-3.29-5.09-5.58-5.95   c-0.79-0.3-2.43-0.76-2.43-2.51c0-1.06,0.86-2.48,2.43-2.48c1.08,0,2.56,0.61,2.56,2.63h2.66c0-3.07-2.19-5.07-5.21-5.07   c-3.44,0-5.09,2.83-5.09,4.94c0,1.28,0.39,2.61,1.23,3.42c0.84,0.81,1.43,1.11,3.86,2.04c1.25,0.49,2.93,0.93,2.93,2.97   c0,1.92-1.25,3.07-2.93,3.07c-2.68,0-2.95-2.68-2.95-3.29H59.42L59.42,29.12z"></path>	</g>	<g>		<polygon class="st1" points="86.96,34.5 92.05,16.3 89.35,16.3 85.81,29.9 85.76,29.9 82.29,16.3 80.35,16.3 76.83,30 76.78,30    73.32,16.3 70.56,16.3 75.65,34.5 77.99,34.5 81.28,21.79 81.33,21.79 84.63,34.5 86.96,34.5   "></polygon>	</g>	<g>		<path class="st1" d="M110.36,25.45c0-5.19-4.06-9.49-9.47-9.49c-5.56,0-9.47,4.5-9.47,9.44c0,4.99,4.03,9.44,9.47,9.44   C106.3,34.85,110.36,30.42,110.36,25.45L110.36,25.45z M107.7,25.48c0,2.85-2.12,6.93-6.81,6.93c-4.67,0-6.81-4.03-6.81-7.01   c0-2.9,2.11-7.01,6.81-7.01C105.42,18.39,107.7,22.26,107.7,25.48L107.7,25.48z"></path>	</g>	<g>		<polygon class="st1" points="124.92,34.5 124.92,16.3 122.27,16.3 122.27,24.15 114.77,24.15 114.77,16.3 112.11,16.3    112.11,34.5 114.77,34.5 114.77,26.58 122.27,26.58 122.27,34.5 124.92,34.5   "></polygon>	</g>	<g>		<polygon class="st0" points="135.88,34.5 135.88,32.07 130.21,32.07 130.21,16.3 127.55,16.3 127.55,34.5 135.88,34.5   "></polygon>	</g>	<g>		<path class="st1" d="M143.33,34.5h5.44c5.02,0,6.05-3.42,6.05-5.29c0-2.83-1.94-3.98-2.71-4.43c0.62-0.54,1.62-1.43,1.62-3.44   c0-1.28-0.54-5.04-5.68-5.04h-4.72V34.5L143.33,34.5z M145.99,26.31h2.56c0.93,0,2.16,0.02,2.97,1.11   c0.37,0.49,0.64,1.13,0.64,1.8c0,0.94-0.61,2.85-3.29,2.85h-2.88V26.31L145.99,26.31z M145.99,18.74H148c0.59,0,3.07,0,3.07,2.58   c0,1.06-0.44,2.56-2.93,2.56h-2.16V18.74L145.99,18.74z"></path>	</g>	<g>		<path class="st1" d="M168.55,16.3h-2.66v12.25c0,3.37-2.46,3.86-3.44,3.86c-0.98,0-3.44-0.49-3.44-3.86V16.3h-2.66v12.32   c0,2.07,0.69,3.57,1.84,4.67c1.13,0.94,2.58,1.55,4.25,1.55c1.67,0,3.12-0.62,4.26-1.55c1.15-1.11,1.84-2.61,1.84-4.67V16.3   L168.55,16.3z"></path>	</g>	<g>		<polygon class="st1" points="185.44,34.5 185.44,16.3 182.79,16.3 182.79,30.15 182.74,30.15 173.89,16.3 170.98,16.3    170.98,34.5 173.64,34.5 173.64,20.44 173.69,20.44 182.69,34.5 185.44,34.5   "></polygon>	</g>	<g>		<path class="st1" d="M188.02,34.5h5.8c2.56,0,5.02-0.56,7.11-2.63c1.35-1.33,2.29-3.96,2.29-6.42c0-1.77-0.57-3.98-1.87-5.8   c-1.38-1.89-3.64-3.34-7.43-3.34h-5.9V34.5L188.02,34.5z M190.68,18.74h3.22c4.97,0,6.66,3.96,6.66,6.71   c0,5.02-3.52,6.62-6.71,6.62h-3.17V18.74L190.68,18.74z"></path>	</g>	<g>		<path class="st2" d="M236.87,0c0,13.01-10.54,23.59-23.55,23.59v-7.64c8.79,0,15.92-7.15,15.92-15.94H236.87L236.87,0z"></path>	</g>	<g>		<path class="st0" d="M247.23,0c0,18.73-15.18,33.91-33.91,33.91v-7.66c14.52,0,26.3-11.73,26.3-26.26H247.23L247.23,0z"></path>	</g></g></svg>